#N canvas 201 45 952 686 12;
#X declare -lib mrpeach;
#X obj -96 121 pipelist;
#X obj -96 94 unpackOSC;
#X obj -96 64 udpreceive 8000;
#X obj -93 186 bng 15 250 50 0 empty empty empty 17 7 0 10 -262144
-1 -1;
#X obj -20 188 bng 15 250 50 0 empty empty empty 17 7 0 10 -262144
-1 -1;
#X obj -175 186 print boum;
#X obj 4 187 print tchak;
#N canvas 0 22 631 608 boum 0;
#X obj 132 300 osc~;
#X obj 115 167 vline~;
#X obj 107 329 *~;
#X obj 104 368 outlet~;
#X obj 163 197 *~;
#X obj 158 230 *~ 80;
#X obj 154 277 +~ 40;
#X obj 121 112 inlet;
#X msg 115 136 1 \, 0 1000;
#X connect 0 0 2 1;
#X connect 1 0 2 0;
#X connect 1 0 4 0;
#X connect 1 0 4 1;
#X connect 2 0 3 0;
#X connect 4 0 5 0;
#X connect 5 0 6 0;
#X connect 6 0 0 0;
#X connect 7 0 8 0;
#X connect 8 0 1 0;
#X restore -154 283 pd boum;
#N canvas 0 22 450 300 tchack 0;
#X obj 147 198 osc~;
#X obj 130 65 vline~;
#X obj 122 227 *~;
#X obj 119 266 outlet~;
#X obj 178 95 *~;
#X obj 136 10 inlet;
#X obj 173 128 *~ 25;
#X obj 170 169 +~ 200;
#X msg 130 34 1 \, 0 200;
#X obj 274 60 noise~;
#X obj 276 115 lop~ 2000;
#X obj 242 117 *~;
#X obj 253 152 *~;
#X obj 220 237 /~ 2;
#X connect 0 0 2 1;
#X connect 1 0 2 0;
#X connect 1 0 4 0;
#X connect 1 0 4 1;
#X connect 2 0 13 0;
#X connect 4 0 6 0;
#X connect 4 0 11 0;
#X connect 4 0 11 1;
#X connect 5 0 8 0;
#X connect 6 0 7 0;
#X connect 7 0 0 0;
#X connect 8 0 1 0;
#X connect 9 0 10 0;
#X connect 10 0 12 1;
#X connect 11 0 12 0;
#X connect 12 0 13 0;
#X connect 13 0 3 0;
#X restore -64 276 pd tchack;
#X obj -118 345 dac~;
#X obj -78 23 import mrpeach;
#X obj -96 149 routeOSC /boum /tchack;
#X text 222 60 comment;
#X connect 0 0 11 0;
#X connect 1 0 0 0;
#X connect 1 1 0 1;
#X connect 2 0 1 0;
#X connect 3 0 7 0;
#X connect 4 0 8 0;
#X connect 7 0 9 0;
#X connect 7 0 9 1;
#X connect 8 0 9 1;
#X connect 8 0 9 0;
#X connect 11 0 3 0;
#X connect 11 0 5 0;
#X connect 11 1 4 0;
#X connect 11 1 6 0;
