#N canvas 0 22 450 300 10;
#X declare -lib mrpeach;
#X obj -55 15 import mrpeach;
#X obj 126 113 packOSC;
#X obj 136 187 udpsend;
#X msg 200 123 connect 127.0.0.1 8000;
#X msg 250 147 disconnect;
#X msg 126 81 send /slider1 \$1;
#X obj 59 30 vsl 15 128 0 127 0 0 empty empty empty 0 -9 0 10 -262144
-1 -1 6400 1;
#X obj -52 124 vsl 15 128 0 127 0 0 empty empty empty 0 -9 0 10 -262144
-1 -1 0 1;
#X msg 15 175 send /slider2 \$1;
#X connect 1 0 2 0;
#X connect 3 0 2 0;
#X connect 4 0 2 0;
#X connect 5 0 1 0;
#X connect 6 0 5 0;
#X connect 7 0 8 0;
#X connect 8 0 1 0;
