#N canvas 0 22 450 300 10;
#X declare -lib mrpeach;
#X obj -55 15 import mrpeach;
#X obj 126 113 packOSC;
#X obj 136 187 udpsend;
#X msg 200 123 connect 127.0.0.1 8000;
#X msg 250 147 disconnect;
#X msg 126 81 send /boum boumboumboum;
#X msg 15 175 send /tchack tchaktchak;
#X connect 1 0 2 0;
#X connect 3 0 2 0;
#X connect 4 0 2 0;
#X connect 5 0 1 0;
#X connect 6 0 1 0;
