#N canvas 416 86 450 300 10;
#X declare -lib mrpeach;
#X obj -48 -90 import mrpeach;
#X obj 126 113 packOSC;
#X obj 136 187 udpsend;
#X msg 177 112 connect 127.0.0.1 8000;
#X obj 126 -60 vsl 15 128 0 127 0 0 empty empty empty 0 -9 0 10 -262144
-1 -1 0 1;
#X obj 31 -60 vsl 15 128 0 127 0 0 empty empty empty 0 -9 0 10 -262144
-1 -1 0 1;
#X msg 31 81 send /angle \$1;
#X msg 126 81 send /speed \$1;
#X obj 211 -51 loadbang;
#X connect 1 0 2 0;
#X connect 3 0 2 0;
#X connect 4 0 7 0;
#X connect 5 0 6 0;
#X connect 6 0 1 0;
#X connect 7 0 1 0;
#X connect 8 0 3 0;
