#N canvas 384 83 617 431 10;
#X declare -lib mrpeach;
#X obj 102 39 ctlin;
#X obj 277 58 print channel;
#X obj 220 84 print controleur_number;
#X obj 186 113 print value;
#X obj -38 11 import mrpeach;
#X obj 91 200 packOSC;
#X obj 95 123 pack f f f;
#X obj 117 370 udpsend;
#X msg 181 306 connect 127.0.0.1 8000;
#X msg 231 330 disconnect;
#X msg 92 161 send /ctlin \$1 \$2 \$3;
#X obj 568 57 print channel;
#X obj 511 83 print controleur_number;
#X obj 477 112 print value;
#X obj 386 122 pack f f f;
#X obj 393 38 notein;
#X msg 383 160 send /notein \$1 \$2 \$3;
#X connect 0 0 3 0;
#X connect 0 0 6 0;
#X connect 0 1 2 0;
#X connect 0 1 6 1;
#X connect 0 2 1 0;
#X connect 0 2 6 2;
#X connect 5 0 7 0;
#X connect 6 0 10 0;
#X connect 8 0 7 0;
#X connect 9 0 7 0;
#X connect 10 0 5 0;
#X connect 14 0 16 0;
#X connect 15 0 13 0;
#X connect 15 0 14 0;
#X connect 15 1 12 0;
#X connect 15 1 14 1;
#X connect 15 2 11 0;
#X connect 15 2 14 2;
#X connect 16 0 5 0;
